<?xml version="1.0" standalone="no"?><!DOCTYPE svg PUBLIC "-//W3C//DTD SVG 1.1//EN"
        "http://www.w3.org/Graphics/SVG/1.1/DTD/svg11.dtd">
<svg t="1711529308848" class="icon" viewBox="0 0 1024 1024" version="1.1" xmlns="http://www.w3.org/2000/svg"
     p-id="6880" width="20" height="20">
    <path d="M742.1952 133.12H281.8048A72.0896 72.0896 0 0 0 209.7152 204.8v665.6a21.2992 21.2992 0 0 0 11.0592 18.0224 18.8416 18.8416 0 0 0 9.4208 2.4576 22.1184 22.1184 0 0 0 11.4688-3.2768l217.4976-144.9984a29.4912 29.4912 0 0 1 17.2032-5.3248h265.8304a72.0896 72.0896 0 0 0 72.0896-71.68V204.8a72.0896 72.0896 0 0 0-72.0896-71.68z m31.1296 532.48a31.1296 31.1296 0 0 1-31.1296 30.72h-265.8304a71.68 71.68 0 0 0-40.96 11.8784l-185.9584 122.88V204.8a31.1296 31.1296 0 0 1 31.1296-30.72h461.6192a31.1296 31.1296 0 0 1 31.1296 30.72z"
          p-id="6881" fill="#5cb398"></path>
    <path d="M532.48 286.72h-40.96v122.88H368.64v40.96h122.88v122.88h40.96v-122.88h122.88v-40.96h-122.88V286.72z"
          p-id="6882" fill="#5cb398"></path>
</svg>